<?xml version="1.0" standalone="no"?>
<!DOCTYPE svg PUBLIC "-//W3C//DTD SVG 20010904//EN"
 "http://www.w3.org/TR/2001/REC-SVG-20010904/DTD/svg10.dtd">
<svg version="1.0" xmlns="http://www.w3.org/2000/svg"
 width="736.000000pt" height="883.000000pt" viewBox="0 0 736.000000 883.000000"
 preserveAspectRatio="xMidYMid meet">

<g transform="translate(0.000000,883.000000) scale(0.100000,-0.100000)"
fill="#000000" stroke="none">
<path d="M3630 8244 c-8 -2 -87 -8 -175 -13 -198 -12 -615 -86 -732 -130 -434
-163 -649 -280 -908 -498 -138 -116 -223 -208 -310 -338 -53 -79 -53 -81 -69
-203 -23 -178 -21 -347 4 -422 36 -107 114 -236 209 -345 180 -207 272 -288
371 -326 76 -29 260 -38 346 -16 78 20 207 82 250 119 19 17 70 80 113 142 86
120 235 274 316 324 84 52 325 159 420 186 49 14 142 36 207 47 106 19 130 20
223 10 110 -11 135 -20 225 -81 30 -21 87 -53 126 -73 87 -44 166 -119 288
-277 136 -174 140 -182 307 -598 33 -81 53 -204 40 -248 -10 -35 -61 -137 -66
-132 -2 2 -20 70 -40 151 -65 267 -161 522 -258 687 -46 78 -86 130 -158 202
-83 84 -108 103 -183 139 -116 54 -185 77 -281 95 -103 18 -349 18 -435 0
-103 -22 -317 -111 -380 -159 -88 -66 -181 -168 -232 -254 -73 -123 -196 -381
-213 -448 -33 -129 -81 -463 -110 -758 l-7 -68 -60 53 c-199 174 -359 267
-462 271 -46 2 -59 -2 -78 -21 -20 -20 -23 -32 -22 -100 1 -62 9 -102 44 -207
51 -154 93 -266 159 -424 86 -201 203 -503 222 -571 11 -36 29 -114 41 -175
47 -234 22 -555 -66 -852 -177 -596 -180 -607 -180 -678 0 -117 58 -205 136
-205 52 0 127 38 291 148 197 131 223 140 373 124 113 -12 142 -21 384 -128
213 -93 246 -98 475 -64 165 24 207 36 387 111 96 41 135 52 179 53 64 1 82
-9 197 -110 95 -84 151 -104 320 -115 161 -11 237 2 344 58 109 57 138 111
138 258 0 114 -20 213 -125 630 -51 204 -98 404 -104 445 -7 41 -28 158 -48
260 -41 213 -40 236 17 424 32 103 38 113 147 257 147 195 171 232 287 432
112 191 131 254 105 337 -20 64 -50 76 -143 61 -112 -19 -329 -76 -468 -124
-136 -46 -138 -46 -138 12 0 16 10 37 23 50 13 12 53 58 88 102 75 94 146 145
262 188 109 41 143 60 266 150 120 88 185 162 242 276 72 146 114 414 90 572
-21 134 -62 284 -103 378 -22 50 -49 119 -59 155 -39 136 -131 333 -207 445
-239 353 -336 435 -739 619 -395 181 -464 197 -836 195 -139 -1 -259 -3 -267
-5z m668 -77 c115 -31 222 -74 375 -149 65 -32 145 -69 177 -83 105 -44 229
-124 308 -199 59 -55 164 -188 250 -316 76 -114 153 -275 197 -410 14 -47 42
-119 60 -161 129 -294 148 -569 59 -850 -23 -72 -81 -176 -128 -228 -67 -74
-251 -201 -329 -227 -70 -23 -182 -78 -223 -109 -19 -14 -62 -58 -95 -98 -143
-166 -166 -191 -238 -251 -91 -75 -153 -118 -220 -151 -77 -39 -83 -29 -7 15
183 107 338 270 431 453 74 146 73 231 -5 387 -21 41 -63 136 -95 210 -87 204
-110 245 -208 370 -178 225 -222 267 -356 335 -30 15 -84 47 -120 71 -75 49
-140 69 -262 79 -87 7 -208 -10 -390 -56 -138 -34 -402 -155 -514 -234 -85
-60 -230 -215 -299 -318 -73 -109 -113 -144 -218 -189 -151 -66 -307 -68 -437
-6 -148 70 -447 427 -511 612 -24 65 -26 187 -9 365 13 127 25 161 92 251 152
206 385 405 662 563 92 52 439 205 535 236 94 29 260 62 370 71 52 5 133 14
180 20 144 20 334 27 610 25 249 -2 271 -4 358 -28z m-563 -1562 c107 -10 282
-58 377 -104 69 -33 103 -57 175 -128 90 -87 134 -152 210 -303 92 -185 260
-770 234 -818 -23 -43 -185 -183 -312 -269 -137 -93 -167 -117 -152 -126 4 -2
31 -10 58 -17 44 -11 59 -10 110 5 84 24 177 75 264 145 41 33 78 60 82 60 6
0 17 -65 37 -235 6 -52 11 -65 17 -50 18 41 125 194 151 214 15 12 52 28 83
37 31 9 107 31 169 50 220 66 301 67 288 4 -6 -31 -213 -382 -269 -457 -18
-23 -78 -102 -133 -175 -112 -147 -132 -181 -169 -292 -46 -138 -36 -220 100
-806 18 -80 36 -163 40 -185 8 -50 61 -283 80 -350 13 -45 21 -223 16 -358 -5
-120 -54 -202 -149 -249 -56 -28 -78 -33 -159 -36 -130 -6 -175 8 -233 72
-115 129 -167 175 -206 182 -55 10 -135 -13 -337 -97 -205 -85 -275 -102 -427
-102 -128 0 -189 16 -359 95 -194 91 -342 125 -489 115 -98 -7 -163 -34 -291
-120 -93 -63 -175 -100 -200 -92 -51 16 -83 131 -63 230 8 41 80 325 148 585
31 117 89 725 74 766 -6 14 -10 35 -10 47 0 25 -41 160 -50 167 -12 9 -29 45
-109 242 -44 106 -102 243 -130 303 -105 228 -178 447 -188 562 -5 60 -3 74 9
78 26 10 151 -60 275 -154 101 -77 126 -102 173 -173 50 -76 62 -97 100 -183
13 -27 15 -12 26 165 18 283 33 447 55 598 44 308 74 404 205 664 70 138 85
160 158 233 105 106 150 133 322 201 190 74 207 76 399 59z"/>
<path d="M3836 7772 c-6 -10 -26 -306 -26 -389 l0 -63 90 0 c89 0 90 0 96 27
9 35 -16 53 -72 53 -42 0 -43 0 -39 33 2 17 7 100 9 183 6 151 6 152 -17 158
-29 8 -35 7 -41 -2z"/>
<path d="M3586 7758 c-2 -7 -12 -92 -21 -188 -9 -96 -19 -194 -21 -217 -6 -42
-5 -43 25 -43 33 0 51 22 51 64 0 19 6 26 31 31 36 8 44 2 56 -45 5 -19 15
-35 21 -34 7 1 23 2 36 3 l24 1 -57 220 -56 220 -43 0 c-25 0 -44 -5 -46 -12z
m78 -235 c7 -29 5 -33 -14 -33 -20 0 -22 4 -16 31 3 17 6 41 7 53 0 20 0 20 8
1 5 -11 12 -35 15 -52z"/>
<path d="M3338 7727 c-76 -15 -98 -23 -98 -36 0 -9 18 -107 41 -218 47 -225
39 -213 125 -189 27 8 66 17 87 20 39 7 44 17 28 60 -9 22 -13 24 -43 16 -94
-23 -96 -23 -108 21 -6 23 -9 47 -6 54 2 7 26 16 51 20 l47 7 -5 35 c-4 20 -8
37 -10 40 -3 2 -26 -1 -52 -7 -26 -6 -50 -8 -53 -5 -3 2 -8 25 -12 49 l-7 44
64 12 c61 12 63 13 63 44 0 52 -6 54 -112 33z"/>
<path d="M4321 7678 c-4 -13 -39 -105 -76 -206 -57 -152 -66 -185 -54 -193 19
-12 59 -11 59 1 0 6 12 41 27 79 26 68 27 69 55 59 42 -15 94 -2 116 30 11 15
27 49 36 76 26 76 10 110 -68 147 -73 35 -84 36 -95 7z m83 -84 c20 -8 20 -37
0 -75 -13 -26 -19 -30 -42 -24 -15 4 -28 8 -30 10 -6 6 38 95 47 95 5 0 16 -3
25 -6z"/>
<path d="M3030 7644 c-30 -8 -58 -18 -62 -22 -4 -4 23 -101 60 -215 66 -204
67 -207 95 -207 15 0 30 7 33 15 3 8 -5 48 -19 90 -39 113 -15 106 68 -22 30
-47 32 -48 70 -33 l27 10 -57 80 c-55 80 -56 81 -44 121 17 54 -8 137 -52 173
-35 30 -43 30 -119 10z m96 -108 c15 -43 6 -66 -26 -66 -12 0 -23 14 -33 45
-14 41 -14 46 1 55 28 16 44 7 58 -34z"/>
<path d="M4577 7498 c-92 -142 -177 -284 -177 -294 0 -5 26 -24 58 -42 31 -17
70 -40 85 -49 28 -18 29 -17 48 6 26 32 24 44 -13 64 -18 10 -44 26 -57 36
l-23 18 27 41 27 41 45 -26 45 -26 19 24 c26 34 24 43 -21 68 -46 26 -49 37
-18 77 12 16 23 31 25 33 1 2 28 -13 58 -33 l56 -37 19 23 c31 37 24 53 -42
93 -35 21 -73 45 -85 53 -21 13 -24 11 -76 -70z"/>
<path d="M2610 7451 c-47 -27 -84 -53 -83 -58 1 -4 49 -92 108 -196 69 -122
111 -185 118 -181 12 7 159 96 165 100 6 4 -28 64 -36 64 -4 0 -29 -14 -57
-30 -27 -16 -53 -30 -57 -30 -7 0 -48 72 -48 84 0 2 17 15 38 27 20 12 39 24
41 25 7 6 -21 64 -31 64 -5 0 -27 -9 -49 -20 -22 -12 -44 -18 -50 -14 -14 8
-41 73 -35 82 3 5 27 19 55 32 28 13 51 27 51 32 0 15 -30 68 -38 68 -4 0 -45
-23 -92 -49z"/>
<path d="M4771 7283 c-120 -126 -141 -157 -141 -209 0 -35 5 -47 31 -68 40
-34 91 -35 133 -2 34 26 174 184 193 219 28 50 4 118 -48 136 -66 23 -79 17
-168 -76z m144 -20 c0 -13 -32 -59 -78 -112 -59 -69 -85 -91 -103 -91 -27 0
-40 21 -27 44 4 8 43 53 87 101 58 64 84 85 100 83 14 -2 21 -10 21 -25z"/>
<path d="M2395 7317 c-34 -23 -71 -50 -84 -59 l-23 -17 29 -43 c110 -162 223
-318 232 -318 6 0 139 97 159 115 4 3 -8 26 -26 53 -7 11 -21 6 -66 -23 -61
-41 -67 -40 -99 13 l-17 31 40 28 c45 32 47 39 19 72 l-20 24 -44 -32 -44 -32
-27 40 c-14 22 -23 44 -20 50 3 5 26 22 51 38 51 32 54 42 23 77 l-23 25 -60
-42z"/>
<path d="M5019 7122 c-145 -113 -240 -187 -252 -194 -10 -6 16 -58 30 -58 3 0
37 23 74 51 l69 51 21 -26 c27 -35 75 -47 116 -30 80 32 134 101 117 150 -9
24 -75 124 -83 124 -3 0 -45 -31 -92 -68z m92 -64 c10 -19 8 -25 -20 -50 -38
-34 -42 -34 -67 -7 -18 20 -18 21 16 50 42 34 56 36 71 7z"/>
<path d="M2158 7140 c-32 -25 -52 -72 -44 -105 3 -13 23 -42 44 -63 35 -38 41
-40 117 -46 99 -9 113 -13 125 -36 23 -44 -21 -68 -55 -30 -23 25 -37 25 -61
-1 -18 -21 -18 -21 23 -60 55 -51 92 -52 139 -5 41 41 45 87 11 137 -30 44
-60 58 -150 68 -40 5 -84 14 -96 20 -25 14 -25 38 1 55 13 8 22 5 42 -13 24
-23 26 -23 51 -7 29 19 30 24 9 54 -35 51 -113 67 -156 32z"/>
<path d="M5090 6834 c-102 -53 -187 -98 -190 -101 -7 -7 74 -162 86 -162 7 -1
22 8 35 18 l24 19 -23 47 c-13 26 -22 48 -20 50 14 9 152 83 226 120 51 25 92
50 92 56 0 19 -20 49 -33 49 -7 0 -95 -43 -197 -96z"/>
<path d="M1869 6854 l-24 -26 31 -26 c17 -15 92 -80 167 -144 74 -65 139 -118
145 -118 5 0 17 11 26 25 16 25 16 26 -16 53 -18 15 -53 45 -78 67 -40 36 -84
74 -195 167 l-32 27 -24 -25z"/>
<path d="M5340 6645 c-25 -7 -114 -32 -198 -56 -123 -34 -152 -46 -149 -58 3
-9 16 -53 28 -98 22 -75 26 -83 49 -83 48 0 53 11 36 77 -9 34 -16 63 -16 66
0 6 67 27 87 27 7 0 17 -19 24 -42 6 -24 13 -46 15 -50 4 -6 62 6 71 16 2 2
-2 27 -11 55 l-15 51 40 10 c22 6 45 10 52 7 6 -2 18 -30 27 -63 15 -57 17
-59 45 -56 47 5 51 15 30 94 -33 131 -30 129 -115 103z"/>
<path d="M3193 6053 c-46 -56 -102 -93 -194 -129 -44 -16 -69 -31 -69 -41 0
-23 86 -11 158 22 98 45 193 141 178 180 -10 27 -34 16 -73 -32z"/>
<path d="M4040 6076 c0 -40 82 -121 164 -162 74 -36 165 -51 173 -28 2 6 -27
23 -65 38 -94 36 -151 74 -196 130 -43 51 -76 61 -76 22z"/>
<path d="M3166 5900 c-21 -18 -49 -56 -64 -84 -24 -46 -27 -61 -27 -156 0 -95
3 -110 28 -163 54 -108 140 -141 224 -85 61 40 97 120 102 225 4 108 -17 178
-74 240 -37 42 -46 46 -96 51 -52 4 -58 2 -93 -28z m179 -205 c32 -31 32 -69
-1 -102 -20 -20 -31 -24 -57 -19 -48 10 -62 31 -58 89 2 26 38 57 66 57 14 0
37 -11 50 -25z"/>
<path d="M3998 5905 c-46 -31 -73 -75 -93 -150 -20 -78 -19 -130 4 -205 26
-82 57 -126 109 -151 59 -29 104 -20 158 34 31 32 47 59 63 111 25 81 26 131
6 209 -39 152 -149 219 -247 152z m77 -210 c62 -61 -7 -150 -85 -110 -35 18
-47 54 -29 87 28 53 75 63 114 23z"/>
<path d="M3020 5500 c0 -31 24 -71 67 -111 52 -50 96 -71 144 -67 50 4 51 21
2 29 -21 3 -50 11 -65 17 -35 15 -102 83 -118 122 -14 35 -30 40 -30 10z"/>
<path d="M4276 5485 c-33 -61 -99 -113 -166 -131 -33 -10 -60 -21 -60 -26 0
-16 91 -8 129 11 63 32 131 119 131 167 0 24 -15 15 -34 -21z"/>
<path d="M3589 5141 c-70 -23 -97 -48 -136 -130 -31 -67 -35 -149 -9 -199 38
-74 176 -123 292 -104 90 15 134 40 164 93 22 39 25 55 24 142 -2 115 -13 137
-89 176 -38 20 -65 26 -134 28 -47 1 -98 -1 -112 -6z"/>
<path d="M2069 5009 c-13 -24 -5 -49 15 -49 14 0 26 20 26 45 0 23 -29 26 -41
4z"/>
<path d="M2110 4890 c0 -71 186 -490 218 -490 4 0 13 5 19 11 8 8 -11 55 -67
167 -42 86 -94 199 -115 250 -39 95 -55 113 -55 62z"/>
<path d="M4874 3505 c-4 -25 -1 -65 10 -114 10 -42 32 -150 51 -240 31 -154
43 -186 70 -177 18 6 7 119 -24 236 -64 246 -83 315 -91 324 -5 5 -12 -8 -16
-29z"/>
<path d="M4052 2410 c-141 -68 -313 -121 -385 -118 -32 2 -57 -1 -57 -7 -2
-14 60 -31 68 -19 4 5 45 9 92 10 69 1 102 7 175 34 148 53 248 110 239 135
-9 23 -22 19 -132 -35z"/>
</g>
</svg>
