<?xml version="1.0" standalone="no"?>
<!DOCTYPE svg PUBLIC "-//W3C//DTD SVG 20010904//EN"
 "http://www.w3.org/TR/2001/REC-SVG-20010904/DTD/svg10.dtd">
<svg version="1.0" xmlns="http://www.w3.org/2000/svg"
 width="736.000000pt" height="909.000000pt" viewBox="0 0 736.000000 909.000000"
 preserveAspectRatio="xMidYMid meet">

<g transform="translate(0.000000,909.000000) scale(0.100000,-0.100000)"
fill="#000000" stroke="none">
<path d="M2927 8940 c-37 -4 -95 -15 -130 -23 -34 -9 -82 -18 -107 -22 -25 -4
-71 -15 -103 -26 -31 -10 -62 -19 -68 -19 -6 0 -25 -6 -42 -14 -56 -23 -142
-56 -149 -56 -36 0 -262 -134 -347 -205 -20 -16 -40 -33 -46 -37 -45 -34 -142
-124 -186 -174 -87 -99 -209 -285 -209 -319 0 -8 -4 -16 -9 -20 -14 -8 -85
-197 -111 -295 -12 -47 -26 -94 -31 -105 -16 -39 -68 -271 -83 -370 -8 -55
-20 -156 -26 -225 -6 -69 -15 -145 -21 -170 -22 -99 -41 -190 -59 -290 -11
-58 -24 -120 -29 -138 -5 -17 -12 -69 -16 -115 -13 -176 -25 -326 -36 -422
-13 -117 -68 -465 -75 -477 -3 -5 -9 -36 -14 -69 -5 -34 -15 -84 -24 -112 -8
-29 -24 -90 -36 -137 -12 -47 -34 -128 -51 -180 -16 -52 -45 -153 -64 -225
-20 -71 -45 -159 -55 -195 -53 -175 -123 -423 -150 -525 -38 -147 -51 -192
-69 -255 -26 -87 -64 -226 -91 -330 -13 -47 -29 -105 -36 -129 -8 -25 -14 -54
-14 -65 0 -11 -9 -49 -19 -85 -11 -36 -27 -95 -37 -131 -9 -36 -36 -139 -61
-230 -24 -91 -48 -183 -52 -205 -4 -22 -20 -85 -35 -140 -15 -55 -31 -116 -36
-135 -12 -49 -44 -159 -75 -263 -24 -79 -26 -97 -20 -180 13 -166 39 -188 310
-267 193 -55 264 -88 265 -123 0 -10 -8 -34 -19 -55 -10 -20 -23 -64 -29 -97
-18 -96 15 -206 88 -291 69 -80 236 -197 385 -269 93 -45 281 -115 307 -115 9
0 35 -7 59 -16 78 -28 363 -64 504 -64 192 0 363 44 433 110 42 39 44 62 37
311 -5 160 -4 243 3 256 16 30 121 43 345 43 161 0 197 -3 207 -15 21 -25 1
-558 -25 -682 -24 -110 73 -202 250 -236 137 -27 247 -30 485 -12 124 9 259
20 300 25 195 24 239 30 295 44 33 8 79 17 102 20 24 4 62 12 85 20 24 7 61
18 83 24 249 71 325 95 410 127 39 15 95 35 125 44 57 19 241 100 250 110 3 3
17 13 32 21 100 55 144 87 221 161 48 45 107 110 131 143 24 34 65 81 91 106
111 106 120 144 119 467 l-1 253 36 6 c99 16 236 56 278 81 62 36 119 93 139
140 14 33 16 82 14 363 -1 179 -5 397 -10 485 -9 191 -5 205 63 205 47 0 59
-6 75 -36 6 -11 16 -128 22 -260 6 -131 14 -250 17 -264 17 -72 55 -100 132
-100 68 1 193 74 300 178 151 147 174 235 153 594 -7 112 -17 226 -22 253 -6
28 -14 111 -19 185 -25 371 -81 734 -171 1110 -20 81 -32 131 -50 210 -42 177
-75 280 -126 388 -19 41 -34 78 -34 82 0 5 -10 25 -21 45 -20 34 -22 50 -23
263 -1 223 -1 228 -27 282 -26 55 -71 108 -131 154 -60 45 -248 99 -401 116
-69 7 -100 22 -81 39 5 5 32 21 59 36 70 38 89 58 123 129 50 105 67 269 38
380 -52 198 -233 359 -419 373 l-75 6 -22 42 c-29 57 -82 109 -136 135 -39 20
-58 22 -149 18 -91 -3 -107 -6 -128 -26 -40 -37 -58 -29 -121 57 -60 81 -132
151 -189 181 -75 41 -139 69 -190 84 -30 9 -59 21 -65 28 -6 7 -20 42 -32 78
-22 66 -82 195 -121 260 -36 59 -142 191 -220 272 -86 90 -272 248 -291 248
-5 0 -30 15 -56 33 -26 18 -63 39 -82 47 -19 7 -46 22 -59 32 -13 10 -32 18
-42 18 -10 0 -20 4 -23 9 -10 16 -135 59 -251 86 -101 25 -131 27 -365 30
-140 2 -285 0 -323 -5z m706 -250 c31 -11 63 -20 71 -20 7 0 49 -18 92 -40 43
-22 84 -40 89 -40 10 0 21 -8 201 -135 83 -58 294 -255 342 -318 31 -41 113
-226 118 -269 5 -40 4 -48 -14 -57 -11 -6 -28 -11 -37 -11 -23 0 -138 -55
-200 -96 -123 -80 -247 -234 -269 -335 -3 -14 -14 -37 -25 -51 -19 -24 -27
-26 -133 -30 -123 -6 -151 -15 -249 -80 -100 -66 -182 -206 -230 -393 -25 -93
-35 -163 -49 -335 -8 -109 -7 -139 9 -235 26 -150 78 -282 134 -343 35 -38
123 -93 159 -98 18 -3 46 -16 62 -29 l29 -23 -12 -60 c-20 -93 7 -200 68 -265
32 -35 72 -57 104 -57 13 0 32 -9 42 -20 17 -18 17 -27 7 -98 -6 -42 -16 -131
-23 -197 -6 -66 -19 -190 -30 -275 -10 -85 -23 -211 -29 -280 -20 -230 -41
-385 -57 -422 -26 -61 -14 -119 37 -176 74 -81 134 -115 245 -140 112 -26 302
-41 510 -42 157 0 182 -4 190 -30 3 -10 -1 -58 -9 -107 -23 -130 -30 -304 -17
-407 6 -50 15 -94 20 -99 16 -16 41 75 61 224 11 81 26 166 35 190 8 24 15 52
15 63 0 32 44 134 63 146 19 12 73 16 349 25 169 6 176 6 182 -13 9 -28 -10
-214 -44 -437 -6 -38 -15 -110 -20 -160 -6 -49 -15 -128 -20 -175 -6 -47 -15
-141 -20 -210 -6 -69 -14 -165 -20 -215 -13 -123 -39 -597 -40 -721 0 -92 2
-104 24 -135 14 -19 35 -55 47 -81 17 -39 72 -99 124 -136 22 -16 142 -70 170
-76 41 -10 75 -33 75 -52 0 -31 -131 -179 -196 -220 -16 -10 -51 -35 -79 -55
-59 -43 -305 -169 -330 -169 -4 0 -21 -6 -38 -13 -30 -13 -289 -98 -402 -132
-121 -37 -316 -88 -385 -101 -41 -8 -95 -19 -120 -24 -161 -35 -513 -76 -747
-87 -104 -5 -127 -3 -148 11 -14 9 -25 20 -25 24 0 7 28 25 125 76 99 53 231
142 272 183 21 21 54 61 73 88 l35 50 -3 240 c-3 234 -11 358 -33 500 -16 111
-89 549 -110 670 -24 133 -37 216 -49 315 -5 41 -14 111 -19 155 -5 44 -15
121 -21 170 -6 50 -15 142 -20 205 -5 63 -15 205 -24 315 -8 110 -20 288 -26
395 -8 138 -16 214 -30 261 -11 36 -20 74 -20 84 0 12 -3 15 -9 10 -16 -16
-24 -781 -11 -1045 25 -534 33 -609 106 -1120 3 -19 9 -62 15 -95 21 -132 49
-419 54 -553 3 -87 1 -94 -19 -108 -20 -13 -27 -12 -62 5 -67 32 -160 58 -323
91 -246 48 -660 36 -929 -27 -84 -20 -96 -14 -88 47 3 19 8 91 11 160 6 121
35 403 54 525 5 33 15 105 21 160 6 55 17 152 25 215 8 63 19 176 25 250 6 74
15 158 20 185 5 28 16 119 25 204 13 138 13 157 0 178 -28 43 -48 22 -59 -62
-8 -56 -27 -145 -61 -285 -13 -52 -34 -138 -46 -190 -12 -52 -28 -120 -36
-150 -8 -30 -18 -73 -23 -95 -5 -22 -14 -53 -20 -70 -6 -16 -16 -50 -20 -75
-5 -25 -23 -99 -40 -165 -17 -66 -35 -145 -41 -175 -6 -30 -15 -75 -20 -100
-32 -148 -65 -400 -78 -580 -7 -111 -13 -145 -35 -193 -15 -33 -26 -76 -26
-100 0 -86 68 -182 182 -260 33 -22 48 -39 48 -54 0 -23 -2 -23 -131 -23 -192
0 -386 35 -600 109 -31 10 -65 24 -75 29 -10 6 -46 23 -79 39 -33 15 -62 30
-65 34 -3 3 -30 22 -60 42 -154 102 -198 167 -166 251 9 24 28 57 41 72 38 44
55 87 55 141 0 55 24 319 46 503 14 123 32 230 74 440 87 436 117 600 130 720
6 52 15 122 21 155 5 33 16 114 24 180 13 113 25 197 60 445 8 58 19 159 25
225 5 66 14 145 20 175 24 129 66 889 53 948 -3 12 -9 22 -13 22 -13 0 -20
-29 -20 -86 0 -31 -9 -99 -20 -152 -11 -53 -24 -153 -30 -221 -6 -68 -12 -127
-15 -131 -5 -8 -12 -58 -60 -410 -14 -102 -30 -205 -36 -230 -5 -25 -14 -80
-19 -123 -5 -44 -14 -95 -19 -115 -6 -21 -17 -85 -26 -144 -8 -59 -17 -113
-20 -120 -3 -7 -11 -53 -19 -103 -8 -49 -21 -128 -30 -175 -9 -47 -26 -134
-37 -195 -12 -60 -27 -132 -35 -160 -8 -27 -19 -79 -24 -115 -6 -36 -17 -87
-25 -115 -7 -27 -23 -93 -35 -145 -11 -52 -29 -126 -40 -165 -10 -38 -24 -97
-30 -130 -7 -33 -16 -73 -21 -90 -6 -16 -14 -61 -20 -100 -5 -38 -16 -99 -24
-135 -7 -36 -22 -104 -31 -153 -9 -48 -23 -92 -30 -98 -10 -8 -25 -6 -56 9
-24 11 -90 34 -148 52 -114 35 -171 55 -210 74 -44 21 -40 57 25 261 7 22 23
76 34 120 12 44 31 109 41 145 10 36 28 103 40 150 25 96 32 120 60 207 11 34
20 72 20 83 0 12 6 33 14 48 7 15 16 45 20 67 4 22 16 65 26 95 19 58 42 140
86 310 15 58 37 137 49 175 13 39 30 97 39 130 10 33 23 78 31 100 7 22 19 63
26 90 7 28 19 61 26 75 7 14 13 33 13 43 0 16 26 105 70 237 10 30 25 80 33
110 8 30 29 107 47 170 17 63 38 140 47 170 8 30 20 75 28 100 7 25 18 65 24
90 7 25 20 74 30 110 46 161 76 304 126 595 45 263 41 231 86 620 11 99 27
232 35 295 8 63 19 156 24 205 14 128 64 482 80 560 23 108 73 311 101 405 17
58 35 119 39 135 32 110 102 264 154 340 47 68 146 187 177 212 18 16 42 36
54 47 135 122 350 245 515 295 162 49 208 61 255 67 27 4 65 14 85 22 24 10
92 16 215 21 233 8 422 -3 498 -29z m1197 -1066 c113 -25 238 -100 338 -202
59 -61 62 -66 62 -113 0 -40 4 -51 25 -65 31 -20 52 -13 106 39 44 43 103 77
133 77 8 0 34 -10 56 -21 45 -24 83 -85 93 -153 3 -21 17 -50 29 -63 25 -27
57 -27 148 -3 52 14 139 6 181 -15 49 -26 96 -73 125 -128 25 -45 28 -63 28
-137 0 -72 -4 -94 -28 -147 -27 -58 -78 -113 -106 -113 -6 0 -37 -11 -70 -25
-68 -29 -114 -31 -168 -10 -50 20 -89 7 -97 -32 -3 -15 -13 -50 -21 -78 -16
-53 -43 -372 -44 -513 0 -94 -17 -138 -55 -148 -58 -14 -108 59 -125 183 -5
38 -7 164 -5 282 3 131 1 220 -5 232 -16 29 -47 41 -127 50 -40 4 -94 17 -119
29 -68 30 -86 26 -146 -30 -29 -27 -78 -63 -109 -80 -50 -27 -66 -30 -140 -30
-68 0 -89 4 -109 20 -48 37 -107 20 -124 -35 -8 -27 -76 -98 -123 -129 -61
-40 -164 -59 -248 -46 -38 6 -82 16 -97 21 -19 8 -33 7 -50 -2 -29 -15 -35
-25 -49 -73 -13 -47 -29 -33 -29 25 0 28 -11 50 -44 94 -36 46 -46 68 -52 112
-8 68 7 145 44 220 37 75 109 123 186 123 41 0 55 5 78 27 32 30 35 57 14 123
-53 167 -45 316 22 460 37 80 152 191 245 239 115 59 227 69 377 35z m320
-1184 c19 -6 69 -11 110 -11 73 0 76 -1 86 -27 6 -15 7 -38 3 -52 -4 -14 -7
-119 -8 -235 -1 -187 1 -217 20 -277 37 -115 102 -167 212 -168 26 0 27 -2 27
-52 -1 -29 -7 -96 -15 -148 -8 -52 -19 -140 -25 -195 -5 -55 -14 -138 -20
-185 -5 -47 -14 -152 -20 -235 -20 -302 -31 -418 -41 -436 -17 -32 -88 -20
-129 21 -15 15 -31 20 -53 18 -29 -3 -32 -7 -35 -39 -4 -50 48 -126 108 -157
85 -44 196 -12 244 71 l24 42 7 530 c5 292 7 587 6 657 -2 120 -1 129 26 185
22 46 28 75 30 138 8 192 35 551 43 559 11 11 71 0 94 -17 16 -12 17 -23 6
-152 -6 -77 -15 -203 -19 -280 -9 -163 -13 -176 -59 -233 -120 -148 -106 -433
36 -700 36 -69 43 -91 39 -120 -23 -152 -39 -320 -50 -519 -9 -153 -17 -236
-26 -246 -10 -13 -50 -15 -279 -11 -147 2 -377 9 -512 15 -135 5 -396 11 -581
12 -278 2 -340 5 -354 17 -19 16 -19 6 6 435 5 83 13 382 19 665 6 283 14 578
18 655 l7 140 105 -3 c88 -2 116 1 175 20 39 13 81 32 95 43 47 38 102 100
121 137 23 45 49 55 85 32 20 -13 48 -18 118 -18 79 -1 100 3 159 28 37 15 67
32 67 37 0 5 5 9 11 9 6 0 27 14 46 30 18 17 35 30 36 30 1 0 18 -5 37 -10z
m1095 -310 c66 -6 136 -15 156 -21 85 -22 99 -80 99 -439 0 -253 -8 -372 -45
-715 -8 -77 -15 -167 -15 -200 0 -33 -8 -87 -16 -120 -9 -33 -18 -70 -21 -81
-3 -12 -24 -32 -46 -45 -38 -22 -53 -24 -147 -22 -167 3 -209 10 -223 40 -17
37 0 53 74 73 80 20 171 71 199 109 55 78 62 113 72 351 12 296 15 765 5 813
-12 59 -60 101 -141 126 -37 12 -84 21 -103 21 -57 0 -73 14 -73 65 0 52 17
66 70 60 19 -3 89 -9 155 -15z m-2280 -557 c-7 -51 -29 -57 -63 -19 -34 40
-36 82 -8 169 15 43 26 86 26 96 0 10 10 31 23 47 l22 29 3 -140 c2 -77 0
-159 -3 -182z m2255 167 c11 -6 22 -21 26 -35 3 -13 1 -131 -5 -262 -6 -131
-11 -298 -11 -370 0 -168 -12 -224 -57 -274 -20 -22 -44 -39 -54 -39 -21 0
-43 31 -53 73 -4 16 -39 97 -80 180 -116 243 -115 241 -127 345 -13 115 2 239
35 287 21 29 66 73 93 88 43 26 190 30 233 7z m483 -521 c53 -196 114 -639
151 -1104 9 -110 23 -247 31 -305 9 -58 20 -154 25 -215 6 -60 14 -141 20
-180 5 -38 9 -85 10 -102 0 -30 -3 -33 -29 -33 -16 0 -34 6 -40 14 -32 38
-205 76 -350 76 -105 0 -320 -36 -386 -65 -143 -63 -189 -86 -245 -124 -36
-25 -69 -51 -73 -58 -12 -19 -44 -16 -49 5 -2 9 3 155 11 323 18 340 17 336
88 360 74 24 159 92 190 152 15 30 15 85 -3 216 -8 59 8 71 100 71 88 0 223
32 280 65 46 27 105 86 126 125 37 70 50 164 60 445 10 288 16 357 32 388 16
31 32 13 51 -54z m-2074 -1119 c174 -6 444 -12 600 -13 217 -1 285 -5 289 -14
5 -17 27 -16 55 1 12 8 57 17 100 21 67 6 81 4 98 -11 49 -45 5 -76 -143 -100
-31 -5 -41 -2 -63 20 -15 15 -28 26 -29 24 -28 -61 -30 -63 -96 -69 -93 -9
-916 -9 -1100 0 -180 9 -252 28 -278 74 -17 28 -16 29 11 53 26 22 36 24 134
24 58 0 248 -5 422 -10z m1088 -357 c4 -9 -1 -46 -10 -82 -9 -36 -19 -93 -23
-126 -3 -33 -12 -89 -20 -125 -8 -36 -18 -101 -23 -145 -5 -44 -17 -127 -26
-185 -10 -64 -18 -172 -19 -275 l-1 -170 34 -70 c50 -101 124 -171 246 -229
53 -25 103 -46 110 -46 8 0 17 -4 20 -10 3 -5 25 -14 48 -20 23 -6 69 -22 102
-35 52 -21 60 -27 60 -50 0 -23 -7 -30 -50 -47 -27 -10 -93 -28 -145 -38 -52
-10 -122 -23 -155 -30 -61 -11 -187 -51 -221 -68 -11 -5 -32 -16 -49 -23 -16
-8 -44 -24 -61 -36 -38 -28 -50 -29 -64 -4 -20 39 -4 641 26 971 9 91 20 228
24 305 5 77 16 198 24 270 9 71 16 158 16 192 0 67 4 73 60 84 63 12 90 10 97
-8z"/>
<path d="M2365 7311 c-73 -26 -166 -92 -222 -156 -26 -31 -50 -62 -53 -68 -7
-18 -62 -101 -70 -107 -3 -3 -9 -12 -13 -20 -4 -8 -29 -55 -57 -105 -67 -119
-96 -183 -128 -280 -24 -71 -27 -96 -27 -215 0 -123 3 -143 29 -219 16 -47 38
-101 49 -120 41 -71 151 -163 212 -176 17 -4 49 -13 73 -21 23 -8 82 -14 130
-14 206 0 385 95 501 265 104 152 167 500 132 729 -6 34 -15 97 -21 141 -7 43
-22 102 -34 130 -26 58 -113 156 -170 192 -98 62 -231 80 -331 44z"/>
<path d="M5563 1315 c-8 -21 25 -55 54 -55 18 0 23 5 23 25 0 38 -64 63 -77
30z"/>
<path d="M5102 5993 c-17 -35 -42 -139 -52 -223 -5 -47 -16 -121 -24 -165 -19
-109 -82 -1014 -77 -1119 2 -56 -11 -76 -50 -76 -46 0 -134 44 -165 84 -16 20
-34 36 -41 36 -20 0 -26 -93 -9 -134 31 -75 132 -138 221 -139 123 -1 215 113
175 217 -20 54 19 1059 50 1271 10 71 13 227 4 249 -8 21 -21 20 -32 -1z"/>
<path d="M4466 5968 c-2 -7 -9 -98 -16 -203 -6 -104 -16 -219 -21 -255 -5 -36
-11 -254 -14 -485 -8 -611 -7 -601 -92 -598 -25 1 -50 6 -56 12 -12 12 -57 14
-73 3 -34 -23 -11 -98 43 -137 42 -30 148 -28 188 3 39 31 73 81 77 112 1 14
-1 140 -5 280 -6 182 -4 389 8 720 16 476 14 552 -18 558 -9 2 -19 -2 -21 -10z"/>
</g>
</svg>
