<?xml version="1.0" standalone="no"?>
<!DOCTYPE svg PUBLIC "-//W3C//DTD SVG 20010904//EN"
 "http://www.w3.org/TR/2001/REC-SVG-20010904/DTD/svg10.dtd">
<svg version="1.0" xmlns="http://www.w3.org/2000/svg"
 width="736.000000pt" height="1041.000000pt" viewBox="0 0 736.000000 1041.000000"
 preserveAspectRatio="xMidYMid meet">

<g transform="translate(0.000000,1041.000000) scale(0.100000,-0.100000)"
fill="#000000" stroke="none">
<path d="M5019 7941 c-15 -11 -32 -34 -39 -51 -11 -26 -18 -30 -49 -30 -215
-1 -557 -31 -746 -66 -260 -47 -518 -186 -705 -380 -123 -128 -210 -245 -347
-471 -7 -13 -23 -23 -36 -23 -30 0 -241 -52 -347 -86 -187 -59 -405 -198 -452
-287 -47 -91 -14 -229 72 -297 87 -69 223 -110 364 -110 l95 0 -59 -112 c-32
-62 -86 -180 -121 -263 -103 -250 -211 -449 -367 -675 -110 -161 -419 -520
-446 -520 -7 0 -36 7 -64 15 -66 20 -73 42 -43 135 42 131 23 160 -104 160
-80 0 -83 -1 -153 -46 -40 -25 -79 -44 -87 -41 -8 4 -28 50 -44 103 -31 98
-30 113 5 114 6 0 35 17 65 38 30 21 70 43 89 48 39 11 38 3 15 129 -8 44 -22
143 -31 220 -8 77 -19 144 -24 150 -5 6 -16 38 -25 70 -8 32 -19 63 -25 69
-17 17 -87 7 -139 -20 -61 -30 -130 -44 -235 -45 -115 -2 -140 -9 -144 -39 -3
-28 51 -310 68 -355 6 -16 17 -59 25 -95 8 -36 21 -85 30 -110 9 -25 22 -72
29 -105 12 -55 15 -60 37 -57 13 2 34 10 46 18 12 7 51 25 86 38 l63 24 23
-85 c30 -106 57 -149 95 -146 16 1 57 21 92 43 50 33 75 43 122 47 104 10 121
-18 82 -130 -11 -31 -20 -68 -20 -82 0 -36 40 -72 95 -86 l47 -12 -129 -131
c-211 -214 -270 -282 -308 -358 -28 -56 -35 -82 -35 -127 1 -135 60 -296 144
-388 l44 -48 -63 -60 c-57 -55 -65 -69 -90 -145 -32 -102 -30 -180 9 -278 65
-165 257 -360 423 -430 57 -24 188 -30 273 -11 116 24 102 28 192 -51 112 -97
339 -268 424 -318 114 -68 273 -112 403 -112 30 0 94 8 142 17 l88 17 73 -34
c237 -107 307 -124 501 -118 120 3 137 6 188 30 74 37 161 117 238 222 35 47
69 86 76 86 7 0 37 -5 66 -10 144 -28 217 -40 254 -40 106 1 318 137 392 254
88 138 131 271 167 513 31 214 34 254 46 566 8 207 15 282 34 380 38 183 169
616 300 982 44 127 78 257 111 432 15 76 31 150 37 165 12 32 16 78 24 311 l7
179 23 -29 c22 -27 24 -27 51 -13 40 21 61 72 86 202 18 97 21 151 22 373 0
290 -4 318 -66 483 -134 353 -332 599 -576 714 l-83 39 0 53 c0 31 -5 58 -12
63 -25 20 -85 34 -163 40 -71 5 -83 3 -106 -16z m-249 -171 c0 -5 -46 -33
-102 -61 -127 -63 -215 -127 -304 -222 -138 -145 -176 -202 -242 -364 -71
-174 -73 -178 -107 -177 -17 1 -109 5 -205 9 -112 5 -246 3 -373 -5 -109 -7
-201 -10 -203 -7 -9 9 26 68 108 184 194 272 362 414 609 517 157 64 311 96
597 121 190 16 222 17 222 5z m328 -1 c109 -12 245 -62 342 -126 116 -77 257
-235 334 -374 53 -96 123 -261 145 -342 41 -149 49 -392 21 -627 -13 -105 -33
-201 -40 -198 -4 2 -33 35 -65 73 -216 261 -425 404 -790 540 -150 56 -165 68
-165 131 0 53 17 58 117 34 48 -12 190 -56 315 -97 215 -73 227 -76 251 -61
78 52 79 381 2 483 -40 52 -106 75 -216 75 -87 0 -97 -2 -173 -40 -117 -57
-187 -118 -231 -201 -29 -56 -41 -69 -60 -69 -26 0 -72 -48 -81 -86 -3 -13 -3
-35 0 -48 3 -14 2 -27 -2 -30 -5 -3 -51 6 -103 19 -138 36 -323 73 -446 90
-59 9 -111 19 -116 24 -5 5 -4 17 2 27 6 11 32 70 57 133 26 62 65 140 87 173
52 78 183 216 260 274 54 40 425 234 449 234 5 0 52 -5 106 -11z m345 -575
c25 -9 53 -26 62 -40 19 -29 45 -156 45 -220 0 -59 -19 -134 -34 -134 -7 0
-106 31 -221 69 -116 38 -229 74 -252 81 -24 6 -43 15 -43 21 0 30 47 93 99
133 124 95 240 126 344 90z m-1411 -330 c468 -47 911 -165 1236 -328 148 -74
269 -162 385 -277 l107 -108 0 -189 c0 -104 -3 -210 -6 -235 -6 -42 -9 -46
-29 -41 -57 14 -113 -53 -102 -123 6 -33 2 -41 -52 -100 l-59 -64 -1 -104 c-1
-57 -4 -111 -7 -120 -9 -23 -70 -51 -165 -75 -46 -12 -118 -32 -159 -44 -41
-13 -109 -27 -150 -31 -158 -14 -175 -27 -270 -214 -47 -92 -73 -131 -111
-165 -74 -66 -125 -80 -268 -71 -83 4 -124 3 -146 -6 -16 -7 -36 -11 -43 -10
-7 1 -15 -5 -18 -13 -3 -9 -36 -32 -72 -53 -67 -38 -67 -38 -172 -36 -124 3
-154 -5 -217 -58 -26 -21 -62 -42 -80 -45 -34 -6 -96 11 -172 49 -41 20 -45
26 -56 77 -11 55 -55 146 -100 209 -28 38 -29 56 -15 151 6 36 17 114 25 175
9 60 20 114 25 119 6 6 10 28 10 49 0 36 -7 46 -66 103 -56 53 -65 67 -59 86
3 13 8 34 9 48 1 14 8 35 14 47 7 12 12 32 12 45 0 13 11 47 25 76 14 30 25
72 25 93 0 50 -22 104 -48 118 -25 13 -52 80 -52 129 0 22 9 51 23 72 35 52
57 115 57 163 0 31 5 45 19 54 31 19 79 222 66 276 -9 34 -50 67 -82 67 -15 0
-39 -14 -59 -34 -38 -38 -45 -84 -20 -139 8 -18 17 -59 20 -92 3 -33 8 -83 12
-112 7 -60 -6 -109 -45 -167 -47 -72 -30 -182 39 -247 37 -34 48 -95 25 -139
-28 -54 -63 -173 -71 -239 l-7 -63 60 -56 c70 -66 79 -87 58 -130 -9 -17 -20
-73 -26 -124 -6 -51 -14 -109 -19 -128 -6 -19 -10 -69 -10 -111 0 -64 4 -82
24 -111 13 -20 29 -52 36 -72 6 -20 18 -40 26 -44 15 -9 48 -102 36 -102 -4 0
-54 19 -112 41 -323 127 -342 130 -495 95 -93 -21 -101 -25 -206 -101 -143
-102 -192 -99 -260 17 -22 38 -47 84 -54 102 -8 20 -24 36 -37 40 -42 11 -143
6 -168 -9 -14 -8 -28 -14 -33 -15 -4 0 41 55 99 123 268 309 443 589 604 967
100 236 117 269 221 446 69 117 179 314 365 651 34 61 35 62 82 66 136 10 514
6 654 -9z m-2642 -1173 c5 -11 10 -28 10 -38 0 -10 9 -36 20 -58 28 -56 25
-65 -10 -26 -23 24 -34 30 -43 23 -8 -7 -18 -7 -27 -2 -41 26 -51 -15 -27
-110 10 -38 16 -45 37 -45 14 0 31 -4 38 -8 9 -6 17 3 29 30 l17 38 7 -40 c4
-22 5 -48 3 -58 -3 -9 1 -39 10 -65 20 -63 39 -189 31 -202 -3 -5 -13 -10 -22
-10 -8 0 -36 -16 -62 -35 -26 -19 -98 -52 -160 -74 -63 -23 -120 -46 -128 -52
-8 -7 -17 -8 -22 -3 -15 17 -116 382 -131 474 -6 36 -17 93 -24 127 -7 34 -11
65 -8 68 3 3 33 5 66 5 113 0 226 19 290 50 72 35 92 37 106 11z m-30 -172 c0
-5 -4 -9 -10 -9 -5 0 -10 7 -10 16 0 8 5 12 10 9 6 -3 10 -10 10 -16z m4347
-103 c-3 -8 -11 -43 -17 -78 -21 -113 -69 -283 -129 -455 -86 -245 -93 -269
-160 -488 -127 -422 -139 -491 -151 -864 -9 -269 -20 -382 -57 -601 -31 -183
-107 -362 -190 -445 -83 -83 -217 -155 -289 -155 -42 0 -263 37 -273 45 -1 2
20 52 49 112 62 128 103 226 165 394 26 68 73 193 106 277 37 94 58 161 54
173 -7 22 -47 26 -62 7 -10 -14 -77 -183 -188 -478 -73 -191 -200 -460 -264
-556 -51 -76 -162 -193 -220 -230 -43 -28 -50 -29 -192 -32 -125 -3 -158 -1
-224 17 -86 24 -235 89 -235 103 0 5 14 17 31 26 65 35 166 116 209 169 58 70
118 169 190 313 90 181 99 220 47 220 -21 0 -35 -21 -110 -172 -113 -227 -182
-326 -272 -395 -83 -63 -229 -136 -303 -152 -157 -33 -351 5 -507 100 -122 74
-445 330 -445 353 0 6 24 26 54 43 83 50 232 159 327 239 135 115 349 324 349
343 0 20 -19 41 -38 41 -7 0 -78 -62 -157 -138 -227 -219 -466 -401 -626 -477
-89 -41 -238 -64 -305 -46 -99 27 -257 151 -338 265 -83 116 -100 161 -100
256 -1 134 19 169 168 293 210 175 700 591 734 624 28 27 31 35 22 53 -6 11
-19 20 -29 20 -26 0 -60 -28 -586 -480 -71 -61 -136 -114 -143 -117 -20 -8
-79 54 -117 122 -42 75 -65 163 -65 246 0 86 29 135 174 291 195 210 317 325
367 347 26 10 50 24 53 29 14 23 95 44 140 38 44 -7 45 -8 97 -102 55 -98 85
-130 137 -140 46 -9 93 11 198 86 75 54 109 72 153 80 31 6 77 18 103 26 42
14 53 14 107 0 67 -17 322 -116 343 -133 12 -10 111 -50 258 -105 52 -19 58
-19 106 -4 27 9 63 29 79 46 29 30 117 66 134 55 6 -3 46 -6 90 -6 76 -1 85 2
158 42 43 23 91 51 107 62 26 18 39 19 146 13 100 -5 126 -4 179 13 114 35
156 79 247 253 82 160 98 174 201 183 93 8 104 11 298 65 225 62 259 89 255
202 -3 72 -2 78 14 78 8 0 39 22 68 50 52 48 86 64 75 36z"/>
<path d="M4981 6816 c-26 -31 14 -71 45 -45 8 7 14 22 12 33 -4 26 -40 33 -57
12z"/>
<path d="M5131 6756 c-17 -20 3 -56 29 -56 25 0 39 48 19 61 -20 13 -35 11
-48 -5z"/>
<path d="M5297 6703 c-16 -15 -6 -52 15 -59 28 -9 52 20 37 47 -10 19 -39 25
-52 12z"/>
<path d="M5450 6635 c-18 -22 -8 -50 19 -50 32 0 49 28 32 49 -17 20 -35 20
-51 1z"/>
<path d="M4052 6564 c-97 -48 -169 -153 -214 -310 -30 -105 -32 -299 -4 -389
41 -134 108 -211 214 -241 47 -14 57 -14 105 0 103 30 170 113 226 282 30 89
53 252 44 311 -23 158 -57 246 -119 307 -74 73 -159 86 -252 40z"/>
<path d="M5007 6276 c-49 -18 -111 -61 -144 -100 -35 -41 -88 -156 -110 -236
-22 -83 -25 -301 -4 -375 48 -168 149 -264 266 -252 68 7 107 28 167 89 96 99
158 277 158 455 0 149 -32 257 -102 346 -55 69 -156 101 -231 73z"/>
<path d="M1255 5630 c-9 -15 3 -30 24 -30 23 0 31 9 24 26 -6 16 -39 19 -48 4z"/>
<path d="M1150 5596 c0 -15 37 -32 47 -22 3 3 3 12 0 21 -8 19 -47 20 -47 1z"/>
<path d="M1037 5564 c-9 -10 2 -24 19 -24 8 0 14 7 14 15 0 15 -21 21 -33 9z"/>
<path d="M1161 5515 c-39 -45 -39 -61 0 -108 22 -27 38 -37 59 -37 66 0 98
116 44 159 -39 30 -67 26 -103 -14z m84 -14 c3 -5 1 -12 -5 -16 -13 -8 -13
-45 -1 -45 5 0 12 10 14 23 4 21 4 21 6 1 0 -12 -8 -32 -18 -45 -19 -23 -19
-23 -40 -5 -30 27 -36 54 -15 77 18 20 49 25 59 10z"/>
<path d="M1207 5473 c-11 -10 -8 -43 3 -43 6 0 10 11 10 25 0 26 -2 29 -13 18z"/>
<path d="M1056 5445 c-3 -8 -11 -15 -19 -15 -12 0 -37 -52 -37 -77 0 -17 79
-34 88 -19 4 7 15 15 25 19 22 8 22 34 -3 75 -21 34 -44 42 -54 17z"/>
<path d="M1289 5310 c-30 -22 -64 -40 -77 -40 -21 0 -93 -31 -119 -52 -9 -7
-8 -19 3 -50 8 -22 14 -60 14 -85 0 -52 14 -83 38 -83 9 0 42 16 72 35 30 19
61 35 69 35 8 0 45 14 83 32 67 31 69 33 64 62 -3 17 -8 60 -12 96 -4 36 -11
71 -17 78 -18 23 -64 13 -118 -28z m95 -22 c3 -13 6 -48 6 -78 0 -63 -6 -69
-99 -101 -31 -11 -73 -31 -94 -45 -38 -25 -57 -25 -57 2 0 17 16 19 23 2 3 -7
6 -4 6 8 1 11 8 29 16 40 20 26 19 34 -5 34 -13 0 -18 -5 -14 -15 4 -9 0 -15
-10 -15 -9 0 -16 8 -16 18 0 9 -3 27 -6 39 -5 20 0 26 37 43 57 26 67 25 75
-5 3 -14 10 -22 15 -19 6 3 7 15 3 27 -6 21 -6 21 8 3 11 -14 17 -16 22 -7 4
6 3 18 -4 25 -8 11 -4 20 22 40 41 32 64 33 72 4z"/>
<path d="M1349 5273 c-5 -16 -12 -20 -28 -16 -12 3 -21 1 -21 -6 0 -6 8 -11
18 -11 15 0 15 -2 2 -11 -11 -8 -9 -9 10 -3 33 9 32 8 28 41 -3 25 -4 26 -9 6z"/>
<path d="M1195 5210 c4 -6 11 -8 16 -5 5 4 9 1 9 -4 0 -6 -5 -11 -12 -11 -6 0
-9 -3 -5 -6 3 -4 13 -4 21 -1 21 8 9 37 -16 37 -10 0 -16 -5 -13 -10z"/>
<path d="M1293 5198 c-27 -13 -29 -26 -7 -35 10 -4 20 1 26 11 5 9 14 13 20
10 6 -4 9 -1 6 6 -6 19 -19 21 -45 8z"/>
<path d="M1350 5176 c0 -9 5 -16 10 -16 6 0 10 4 10 9 0 6 -4 13 -10 16 -5 3
-10 -1 -10 -9z"/>
<path d="M1230 5172 c0 -4 5 -13 12 -20 9 -9 9 -12 0 -12 -7 0 -15 7 -18 15
-9 23 -21 18 -20 -7 1 -34 36 -66 36 -34 0 8 7 17 16 20 12 5 14 10 5 20 -6 7
-8 16 -4 19 3 4 -1 7 -10 7 -9 0 -17 -4 -17 -8z"/>
<path d="M1280 5140 c0 -5 5 -10 11 -10 5 0 7 5 4 10 -3 6 -8 10 -11 10 -2 0
-4 -4 -4 -10z"/>
</g>
</svg>
