<?xml version="1.0" standalone="no"?>
<!DOCTYPE svg PUBLIC "-//W3C//DTD SVG 20010904//EN"
 "http://www.w3.org/TR/2001/REC-SVG-20010904/DTD/svg10.dtd">
<svg version="1.0" xmlns="http://www.w3.org/2000/svg"
 width="696.000000pt" height="696.000000pt" viewBox="0 0 696.000000 696.000000"
 preserveAspectRatio="xMidYMid meet">

<g transform="translate(0.000000,696.000000) scale(0.100000,-0.100000)"
fill="#000000" stroke="none">
<path d="M3650 6131 c-222 -71 -484 -339 -764 -780 -131 -207 -258 -480 -312
-673 l-19 -68 -55 -11 c-78 -16 -265 -73 -357 -110 -219 -86 -482 -250 -591
-368 -35 -38 -82 -129 -82 -159 0 -65 111 -197 214 -255 126 -70 300 -117 512
-137 71 -7 130 -14 132 -15 1 -1 -15 -99 -37 -218 -103 -555 -182 -1250 -182
-1609 -1 -240 19 -373 72 -488 56 -121 135 -179 244 -180 83 0 126 14 217 71
116 73 118 72 145 -35 25 -94 42 -126 98 -174 58 -52 164 -67 294 -42 105 20
143 14 237 -36 95 -50 156 -62 220 -45 40 11 69 30 170 116 42 36 53 40 98 39
42 0 64 -8 120 -42 197 -118 377 -68 526 148 54 77 72 82 151 46 120 -54 194
-54 284 -1 106 61 160 238 148 480 -13 276 -137 876 -292 1420 -50 178 -158
530 -177 578 -4 11 9 18 48 27 182 43 455 157 578 240 356 242 221 529 -319
681 -92 26 -514 112 -594 121 -26 3 -34 16 -98 158 -113 247 -140 342 -123
427 6 30 7 30 89 36 264 19 502 208 482 384 -8 71 -59 115 -163 139 -89 20
-293 119 -414 200 -220 147 -352 183 -500 135z m207 -147 c17 -7 86 -45 154
-84 263 -156 443 -243 523 -255 25 -4 46 -12 46 -17 0 -20 -74 -99 -124 -132
-29 -19 -80 -44 -114 -55 -92 -31 -237 -27 -249 8 -4 9 -25 58 -49 109 -39 85
-45 92 -71 92 -56 0 -67 -38 -32 -105 60 -115 69 -155 66 -312 l-2 -148 94
-223 c51 -122 92 -224 90 -226 -2 -2 -59 3 -127 11 -133 16 -152 12 -152 -33
0 -24 24 -54 43 -54 32 0 367 -43 477 -60 170 -28 374 -75 499 -116 184 -60
359 -143 347 -163 -10 -15 -91 -31 -318 -61 -193 -25 -324 -38 -648 -64 -106
-9 -608 -16 -1565 -21 -495 -3 -931 -9 -970 -14 -38 -5 -71 -8 -73 -6 -2 1 36
32 85 69 299 224 722 361 1258 405 61 5 260 8 443 6 320 -3 333 -2 343 17 13
25 3 55 -24 70 -27 14 -592 20 -762 7 -111 -8 -235 -22 -312 -35 l-32 -6 23
73 c111 354 348 755 613 1038 250 268 383 341 520 285z m1483 -1864 c0 -6 -7
-24 -15 -39 -49 -97 -355 -257 -620 -326 -147 -38 -133 -46 -185 107 -25 72
-46 135 -48 138 -1 4 59 13 135 19 251 22 693 88 711 106 9 9 22 6 22 -5z
m-841 -512 c198 -598 301 -971 390 -1408 69 -341 104 -574 105 -700 1 -109 -1
-118 -29 -175 -33 -66 -80 -105 -127 -105 -15 0 -70 18 -122 40 -51 22 -104
40 -117 40 -53 -1 -102 -43 -171 -147 -75 -113 -105 -139 -173 -152 -59 -11
-92 -2 -177 48 -36 21 -87 47 -112 56 -50 19 -44 8 -81 155 -19 79 -39 95 -86
70 -24 -14 -24 -41 2 -142 11 -44 19 -81 17 -83 -2 -1 -18 -10 -36 -19 -18 -9
-57 -39 -87 -66 -58 -53 -110 -73 -153 -61 -15 5 -63 27 -107 50 -97 50 -141
52 -278 17 -106 -28 -154 -24 -193 16 -21 22 -22 30 -28 313 -3 160 -6 323 -6
362 0 66 -2 74 -25 89 -23 15 -27 15 -51 -1 l-26 -17 5 -230 c4 -210 4 -229
-12 -223 -65 26 -114 13 -239 -63 -96 -59 -153 -72 -199 -48 -109 56 -154 237
-133 531 5 72 12 173 15 225 36 574 118 1131 261 1788 l47 212 641 0 c587 0
1055 7 1065 16 2 2 23 4 47 4 l42 0 131 -392z m-2033 343 c-18 -85 -55 -244
-58 -246 -8 -7 -236 17 -331 35 -108 21 -249 65 -322 102 -46 24 -115 76 -115
88 0 12 116 31 228 39 53 3 211 6 350 7 l254 1 -6 -26z"/>
<path d="M3035 3565 c-118 -58 -158 -341 -74 -513 126 -257 349 18 273 338
-19 80 -56 145 -97 171 -38 23 -62 24 -102 4z"/>
<path d="M3884 3535 c-41 -32 -81 -124 -95 -217 -20 -135 18 -287 87 -348 46
-40 74 -46 119 -24 68 32 112 127 122 261 17 241 -112 424 -233 328z"/>
</g>
</svg>
