<?xml version="1.0" standalone="no"?>
<!DOCTYPE svg PUBLIC "-//W3C//DTD SVG 20010904//EN"
 "http://www.w3.org/TR/2001/REC-SVG-20010904/DTD/svg10.dtd">
<svg version="1.0" xmlns="http://www.w3.org/2000/svg"
 width="735.000000pt" height="735.000000pt" viewBox="0 0 735.000000 735.000000"
 preserveAspectRatio="xMidYMid meet">

<g transform="translate(0.000000,735.000000) scale(0.100000,-0.100000)"
fill="#000000" stroke="none">
<path d="M3570 6414 c-347 -29 -708 -222 -925 -494 -116 -146 -177 -264 -323
-630 -324 -811 -352 -876 -551 -1284 -72 -148 -131 -270 -131 -271 0 -2 -21
-47 -46 -102 -129 -274 -149 -343 -142 -503 4 -97 8 -115 36 -172 17 -34 65
-108 107 -163 41 -55 86 -121 100 -148 l26 -47 -78 -101 c-43 -56 -112 -145
-153 -198 -100 -127 -160 -213 -201 -286 -85 -151 -12 -331 166 -411 54 -24
210 -22 465 5 231 25 241 25 265 7 18 -13 19 -27 16 -194 -1 -113 2 -197 9
-224 40 -150 219 -204 440 -131 64 20 271 131 387 206 147 95 192 121 263 159
140 73 278 115 408 124 l92 7 -6 -74 c-3 -41 -14 -134 -26 -208 -29 -192 -19
-235 67 -290 70 -44 164 -56 445 -56 217 1 257 3 350 23 247 54 426 122 523
197 131 103 130 214 -4 375 -46 56 -50 64 -39 84 17 33 99 79 247 140 142 58
224 107 274 164 91 104 129 205 129 348 0 63 4 94 11 94 21 0 136 89 188 146
66 72 87 114 117 232 28 110 31 206 8 282 -22 75 -99 149 -234 225 -194 109
-338 213 -451 324 -105 105 -126 132 -187 243 l-31 58 122 -6 c109 -6 128 -4
178 15 108 41 169 125 194 267 26 149 -15 254 -97 254 -24 0 -24 1 -24 108 1
119 -11 157 -66 211 -39 38 -69 45 -112 27 -60 -25 -102 -110 -113 -228 -6
-67 -6 -68 -32 -60 -70 19 -126 -5 -156 -67 -9 -19 -20 -30 -25 -25 -12 13
-67 224 -101 389 -15 77 -40 196 -54 265 -68 328 -144 589 -211 724 -91 184
-252 372 -404 476 -125 85 -296 157 -427 179 -71 12 -222 20 -283 15z m310
-138 c211 -54 350 -135 496 -288 108 -114 224 -299 270 -428 38 -110 90 -329
144 -610 47 -243 109 -520 125 -562 7 -16 -1 -18 -82 -18 -99 0 -130 -12 -119
-47 4 -12 14 -24 24 -28 9 -4 89 -11 177 -17 148 -9 162 -12 180 -33 48 -55
81 -30 71 52 -7 58 3 83 32 83 21 0 62 -39 62 -60 0 -21 20 -40 42 -40 22 0
42 35 34 63 -7 26 10 211 24 259 11 37 33 68 50 68 5 0 21 -10 36 -23 25 -22
27 -29 27 -108 0 -46 -6 -119 -13 -161 -10 -63 -10 -81 0 -93 11 -13 16 -13
45 5 66 41 95 22 95 -60 0 -121 -46 -210 -129 -252 -49 -25 -65 -28 -155 -28
-56 0 -184 9 -286 20 -198 21 -307 25 -329 11 -22 -14 5 -49 47 -60 20 -5 89
-11 152 -15 64 -3 123 -8 131 -11 9 -3 26 -29 39 -58 37 -82 108 -196 163
-262 65 -77 191 -198 242 -233 22 -15 42 -30 45 -33 10 -12 148 -97 258 -159
227 -128 254 -207 147 -424 -51 -104 -117 -184 -181 -222 l-45 -26 -32 35
c-18 20 -122 100 -232 178 -274 195 -430 316 -504 391 -111 112 -211 283 -275
468 -15 41 -37 91 -50 111 -39 58 -88 56 -110 -4 -8 -24 16 -116 55 -208 143
-335 420 -633 828 -890 206 -129 250 -183 259 -315 5 -82 -7 -130 -50 -194
-66 -98 -153 -146 -458 -250 -110 -38 -221 -81 -246 -95 -54 -32 -84 -77 -84
-127 0 -52 58 -106 159 -149 92 -39 142 -76 152 -113 6 -23 2 -34 -29 -68 -65
-72 -234 -139 -450 -179 -136 -25 -445 -36 -551 -20 -72 11 -168 50 -183 74
-30 46 25 102 169 174 122 61 156 91 173 151 15 56 12 93 -14 179 -127 408
-248 930 -276 1183 -12 114 -22 150 -50 175 -16 14 -20 13 -49 -14 -23 -22
-31 -38 -31 -63 0 -79 23 -263 50 -398 28 -140 40 -188 110 -440 57 -205 99
-374 95 -378 -2 -2 -68 -3 -148 -3 -347 2 -563 -66 -902 -282 -381 -244 -481
-283 -616 -243 -128 37 -117 78 62 221 34 27 81 73 103 101 219 272 238 298
285 393 79 157 114 310 114 506 1 175 -3 225 -58 670 -64 518 -73 600 -80 695
-9 122 -29 184 -65 210 -64 46 -94 5 -85 -115 9 -135 83 -709 117 -915 29
-179 32 -215 32 -430 1 -188 -2 -250 -16 -310 -23 -102 -53 -196 -84 -266 -42
-95 -166 -274 -190 -274 -4 0 -25 12 -46 27 -93 64 -243 75 -574 44 -118 -12
-246 -21 -283 -21 -70 0 -158 21 -198 47 -62 41 -81 139 -44 225 29 67 128
207 212 299 201 221 240 276 328 460 97 202 151 387 185 639 30 222 27 272
-15 298 -17 11 -24 9 -48 -16 -23 -23 -30 -41 -35 -88 -32 -311 -92 -559 -183
-754 l-35 -75 -59 65 c-66 73 -130 188 -149 269 -21 89 -9 221 30 321 55 144
145 339 289 628 198 396 223 454 496 1167 100 260 170 427 207 495 118 215
283 384 478 487 84 45 235 97 325 112 33 6 71 13 85 15 50 9 316 -4 370 -18z"/>
<path d="M3630 5597 c-62 -39 -88 -74 -122 -164 -30 -79 -31 -243 -1 -319 31
-79 76 -138 127 -164 42 -23 49 -24 103 -12 81 16 133 71 165 173 29 92 31
226 6 310 -49 158 -178 240 -278 176z"/>
<path d="M4294 5606 c-41 -18 -90 -79 -113 -142 -81 -215 26 -504 186 -504
111 0 186 81 213 230 37 203 -77 431 -214 430 -23 -1 -55 -7 -72 -14z"/>
<path d="M3726 4669 c-15 -11 -35 -38 -46 -58 -24 -47 -50 -149 -50 -194 l0
-35 -37 13 c-61 21 -118 -5 -143 -65 l-12 -29 -172 6 c-151 5 -173 4 -179 -10
-10 -27 4 -56 32 -61 29 -7 248 -26 296 -26 23 0 34 -7 47 -30 19 -33 41 -38
64 -15 12 11 14 28 8 73 -5 47 -3 60 10 71 27 22 63 -1 86 -55 16 -37 24 -45
42 -42 21 3 24 10 31 103 16 199 43 285 87 285 55 0 73 -109 45 -264 -16 -89
-14 -136 4 -136 5 0 20 9 34 20 14 11 37 20 51 20 40 0 51 -38 37 -128 -17
-115 -62 -183 -144 -217 -58 -24 -181 -20 -456 15 -196 25 -250 29 -277 20
-41 -14 -42 -19 -9 -50 21 -20 40 -24 132 -31 136 -11 178 -16 283 -36 49 -10
140 -17 215 -17 117 -1 134 1 172 22 24 12 60 45 82 72 124 157 118 440 -9
440 l-31 0 7 89 c7 98 -8 170 -48 221 -42 53 -106 65 -152 29z"/>
</g>
</svg>
