<?xml version="1.0" standalone="no"?>
<!DOCTYPE svg PUBLIC "-//W3C//DTD SVG 20010904//EN"
 "http://www.w3.org/TR/2001/REC-SVG-20010904/DTD/svg10.dtd">
<svg version="1.0" xmlns="http://www.w3.org/2000/svg"
 width="736.000000pt" height="915.000000pt" viewBox="0 0 736.000000 915.000000"
 preserveAspectRatio="xMidYMid meet">

<g transform="translate(0.000000,915.000000) scale(0.100000,-0.100000)"
fill="#000000" stroke="none">
<path d="M3790 8754 c-194 -18 -376 -64 -620 -160 -335 -130 -589 -351 -772
-669 -47 -83 -148 -304 -166 -365 -6 -19 -26 -87 -45 -151 -51 -170 -116 -526
-131 -719 -5 -61 -14 -132 -51 -432 -9 -68 -20 -163 -25 -213 -20 -196 -100
-737 -126 -855 -9 -41 -26 -126 -39 -188 -12 -62 -25 -116 -29 -120 -4 -3 -28
2 -54 11 -104 40 -196 57 -302 56 -101 0 -130 -3 -249 -28 -61 -13 -176 -64
-255 -115 -29 -18 -62 -37 -75 -41 -28 -9 -152 -132 -171 -170 -8 -16 -24 -43
-36 -60 -12 -16 -40 -70 -63 -118 -40 -83 -43 -92 -40 -166 l3 -77 -56 -56
c-67 -68 -94 -133 -85 -210 8 -65 45 -109 122 -146 74 -36 96 -42 215 -56 l95
-11 -2 -50 c-15 -326 -14 -533 2 -662 48 -393 79 -532 146 -667 16 -33 29 -64
29 -70 0 -6 -22 -26 -48 -44 -137 -94 -319 -306 -358 -414 -7 -21 -20 -53 -28
-71 -23 -49 -55 -150 -62 -194 -7 -43 14 -98 47 -120 9 -7 27 -30 40 -50 12
-21 29 -46 37 -55 11 -13 14 -40 13 -106 -4 -158 62 -361 149 -459 22 -25 40
-50 40 -55 0 -17 33 -52 100 -109 185 -154 259 -191 449 -223 126 -21 235 -20
362 3 190 36 217 61 64 60 -128 0 -203 32 -307 130 -27 25 -60 52 -75 60 -41
21 -57 45 -156 241 -63 124 -86 200 -89 295 -3 57 0 70 12 70 11 0 17 -17 22
-65 8 -86 74 -259 140 -368 76 -126 213 -255 308 -290 106 -40 135 -45 237
-39 94 5 108 9 161 40 127 74 196 141 271 261 39 62 82 144 95 182 l25 69 48
-3 c26 -2 62 -7 78 -12 17 -5 109 -17 205 -26 343 -32 961 -2 1136 56 46 15
62 7 109 -53 22 -28 60 -62 84 -76 33 -20 47 -37 60 -71 10 -25 32 -75 50
-112 67 -136 248 -257 475 -318 96 -26 297 -28 388 -4 119 30 334 139 382 193
11 11 25 21 32 21 17 0 88 72 135 136 19 27 43 75 53 107 19 61 38 87 62 87
26 0 87 48 117 92 16 24 45 77 65 118 35 73 36 79 37 190 0 77 -5 126 -14 148
-8 19 -10 37 -5 42 5 5 48 17 95 28 58 13 108 32 155 60 38 23 96 51 129 64
83 31 153 74 197 122 21 23 38 44 38 49 0 4 10 17 22 29 27 27 35 73 44 246 9
164 -8 314 -44 385 -32 66 -26 77 45 77 68 0 144 21 193 54 19 12 62 40 95 61
87 55 132 102 164 170 41 87 45 114 24 166 -36 87 -62 116 -154 175 -92 59
-119 92 -119 144 0 15 10 35 21 46 29 26 79 114 79 140 0 42 -29 89 -73 121
-30 20 -54 49 -72 85 -15 29 -45 77 -66 106 -22 29 -45 67 -51 85 -6 18 -16
39 -22 47 -7 8 -20 33 -29 54 -10 21 -33 57 -50 80 -18 23 -39 55 -47 71 -8
17 -20 37 -26 45 -26 32 -143 271 -164 336 -12 38 -42 118 -67 177 -63 155
-109 292 -123 365 -6 35 -25 103 -41 153 -16 49 -36 113 -43 142 -17 62 -61
216 -78 272 -7 22 -21 54 -31 72 -10 17 -27 73 -38 125 -10 51 -26 122 -34
158 -21 93 -72 350 -90 455 -9 50 -20 115 -25 146 -6 30 -10 70 -10 88 0 39
-26 214 -45 296 -7 33 -19 103 -25 155 -16 132 -58 279 -131 455 -33 83 -74
186 -90 230 -42 112 -63 145 -196 307 -98 119 -172 187 -273 251 -31 19 -62
42 -69 51 -7 9 -17 16 -22 16 -5 0 -53 25 -107 55 -54 30 -114 60 -133 66 -19
6 -52 19 -74 29 -74 33 -269 92 -370 112 -97 19 -334 31 -435 22z m386 -169
c115 -19 153 -29 299 -77 250 -81 438 -199 633 -396 67 -68 122 -130 122 -138
0 -14 86 -172 100 -184 6 -6 67 -130 99 -205 12 -27 30 -84 41 -125 48 -194
59 -241 75 -330 10 -52 23 -124 30 -160 35 -174 66 -322 80 -390 10 -41 21
-115 25 -165 10 -96 19 -150 68 -370 51 -225 73 -317 89 -361 11 -30 12 -47 5
-61 -13 -23 22 -261 56 -388 5 -22 16 -65 22 -95 7 -30 22 -80 35 -110 13 -30
53 -149 90 -265 37 -115 73 -226 80 -246 8 -20 19 -65 25 -100 6 -35 20 -82
31 -103 19 -37 42 -96 125 -325 19 -52 47 -122 63 -155 16 -34 45 -97 64 -141
63 -146 138 -292 158 -311 17 -15 69 -113 69 -130 0 -3 18 -32 41 -65 58 -86
145 -171 211 -209 32 -17 60 -35 62 -39 6 -10 -67 -85 -127 -130 -90 -68 -287
-155 -306 -135 -5 5 -32 68 -59 139 -27 72 -69 180 -92 240 -24 61 -60 157
-80 215 -21 58 -50 134 -64 170 -70 171 -87 219 -97 275 -6 33 -24 90 -40 127
-16 36 -29 72 -29 78 0 7 -15 58 -34 113 -19 56 -44 134 -55 173 -12 39 -29
82 -40 95 -10 13 -24 49 -31 79 -7 30 -23 93 -35 140 -13 47 -31 121 -40 165
-10 44 -26 108 -36 143 -10 35 -23 89 -29 120 -5 31 -21 113 -35 182 -44 215
-65 352 -65 432 0 43 -4 97 -9 120 -12 54 -41 284 -41 321 0 15 -5 27 -11 27
-17 0 5 -448 37 -735 9 -77 19 -198 24 -270 5 -71 12 -146 15 -165 63 -358
108 -553 190 -830 9 -30 23 -79 31 -109 8 -30 24 -69 35 -87 11 -18 36 -79 56
-136 64 -185 70 -202 105 -288 19 -47 38 -103 41 -125 7 -45 71 -216 126 -339
63 -140 205 -553 216 -630 6 -39 5 -46 -10 -46 -9 0 -29 8 -43 18 -51 35 -134
54 -252 59 -149 6 -265 -14 -374 -64 -82 -37 -229 -140 -318 -222 -27 -25 -65
-53 -86 -63 -20 -10 -48 -25 -62 -33 -107 -63 -232 -81 -304 -44 -36 19 -106
96 -106 117 0 4 14 43 30 85 75 194 13 334 -180 414 -96 39 -256 28 -375 -28
-127 -59 -198 -118 -262 -218 -19 -29 -36 -51 -39 -48 -3 3 -5 207 -5 454 1
433 -8 678 -31 813 -18 109 -20 103 42 112 70 11 116 47 152 119 35 71 39 175
8 232 l-21 38 22 31 c14 19 23 47 23 72 1 40 0 41 -35 44 -27 2 -47 -5 -85
-31 -27 -18 -69 -47 -94 -64 -25 -17 -85 -43 -133 -58 -202 -63 -356 6 -391
176 -15 73 -7 140 24 204 24 49 111 141 144 151 11 3 35 17 52 29 49 37 139
50 242 36 55 -8 94 -19 107 -30 11 -10 42 -26 69 -36 53 -19 164 -90 247 -157
30 -24 70 -54 89 -68 86 -59 205 -182 236 -245 14 -27 34 -59 44 -70 10 -11
28 -40 40 -64 12 -24 40 -71 62 -103 43 -63 178 -325 178 -345 0 -7 5 -13 10
-13 6 0 10 -8 10 -18 0 -25 25 -57 38 -48 9 6 -10 69 -48 151 -5 11 -33 74
-63 140 -30 66 -68 142 -86 169 -17 28 -31 57 -31 65 0 9 -9 30 -21 46 -11 17
-32 52 -46 79 -14 27 -31 56 -39 64 -20 19 -37 53 -30 59 14 14 192 -132 321
-263 44 -45 85 -83 90 -85 6 -2 23 -24 39 -48 16 -25 48 -63 73 -85 39 -35 66
-71 127 -170 11 -17 50 -78 88 -135 37 -57 68 -109 68 -114 0 -15 60 -136 71
-142 5 -4 9 -15 9 -27 0 -27 33 -118 42 -118 5 0 8 -8 8 -17 1 -10 12 -31 25
-48 14 -16 25 -25 25 -20 0 20 -29 103 -50 146 -12 24 -28 69 -36 99 -8 30
-21 69 -29 87 -8 17 -15 36 -15 41 0 10 -12 31 -108 197 -123 213 -189 308
-249 355 -24 19 -55 55 -68 80 -27 52 -213 237 -341 339 -49 38 -210 121 -236
121 -10 0 -78 53 -151 118 -157 141 -228 190 -323 226 -177 66 -334 62 -484
-15 -95 -48 -139 -87 -195 -174 -65 -101 -87 -165 -93 -267 l-4 -87 -44 -7
c-23 -3 -48 -4 -55 -2 -7 2 -24 31 -38 64 -99 228 -235 391 -406 489 -73 42
-82 52 -125 137 -70 138 -139 394 -171 631 -9 64 -16 87 -27 87 -11 0 -13 -7
-8 -27 4 -16 10 -73 15 -128 13 -145 36 -275 82 -456 22 -88 37 -164 34 -169
-3 -5 -23 -3 -48 6 -103 36 -190 47 -377 46 -103 0 -198 -6 -213 -11 -23 -9
-29 -8 -34 5 -3 9 -1 24 4 34 26 41 55 182 73 356 11 104 26 223 34 264 30
153 51 312 82 625 34 354 100 851 124 945 5 19 20 91 34 160 14 69 41 172 61
230 20 58 44 132 54 165 19 60 61 158 108 250 60 117 110 170 353 375 72 61
144 110 232 160 40 23 80 48 88 55 18 16 234 88 310 104 203 42 474 53 636 26z
m1803 -3370 c0 -5 -8 1 -19 15 -11 14 -19 34 -19 45 0 15 5 11 19 -15 11 -19
19 -39 19 -45z m-4439 -454 c44 -12 27 -34 -58 -78 -45 -23 -92 -49 -104 -58
-48 -33 -213 -203 -260 -267 -45 -62 -62 -90 -120 -200 -31 -60 -37 -62 -150
-54 -82 5 -110 11 -143 31 -55 32 -67 47 -72 98 -9 78 70 212 170 287 26 19
49 42 52 50 7 20 117 92 190 125 33 14 69 31 80 36 61 29 344 50 415 30z m952
-79 c54 -10 104 -25 226 -71 30 -11 64 -30 76 -43 12 -13 43 -35 68 -49 53
-31 151 -141 196 -221 89 -156 127 -388 156 -968 17 -330 40 -521 86 -695 33
-128 43 -157 62 -176 8 -8 25 -36 38 -64 58 -123 217 -302 345 -388 33 -22 62
-44 65 -47 18 -25 133 -84 222 -114 139 -47 242 -66 359 -66 97 0 109 3 281
65 95 35 119 -1 121 -182 1 -105 -4 -119 -62 -182 -22 -24 -154 -111 -168
-111 -2 0 -21 -13 -41 -29 -124 -98 -506 -206 -847 -241 -60 -6 -137 -15 -170
-20 -68 -11 -1020 -19 -1030 -8 -4 3 -1 40 5 81 19 116 -17 383 -65 477 -14
27 -25 58 -25 69 0 39 22 122 32 119 5 -2 20 -29 32 -60 45 -111 164 -272 317
-429 78 -80 168 -159 182 -159 3 0 34 -13 69 -29 63 -29 183 -55 145 -31 -9 6
-21 8 -26 5 -6 -3 -13 0 -18 7 -4 8 -42 30 -83 50 -86 41 -190 119 -215 161
-9 15 -44 56 -78 91 -71 71 -128 139 -161 187 -44 65 -122 215 -150 289 -16
41 -38 94 -49 118 -11 24 -24 60 -29 80 -9 38 -15 57 -43 152 -32 109 -76 345
-71 385 3 22 10 69 16 105 17 100 -2 226 -51 334 -16 35 -19 67 -19 215 0 247
22 462 81 771 18 95 83 318 110 380 23 50 59 160 59 178 0 6 -4 12 -10 12 -5
0 -10 -6 -10 -14 0 -7 -14 -47 -31 -87 -17 -41 -35 -83 -39 -94 -4 -11 -21
-56 -37 -100 -17 -44 -35 -100 -41 -125 -6 -25 -16 -67 -23 -95 -32 -134 -37
-165 -69 -419 -11 -87 -22 -240 -25 -339 -2 -98 -6 -182 -9 -185 -3 -3 -14 2
-23 10 -25 22 -119 68 -139 68 -9 0 -33 10 -53 23 -32 20 -49 22 -161 22
l-125 0 -65 -44 c-36 -24 -73 -52 -83 -63 -10 -10 -24 -18 -32 -18 -8 0 -19
-9 -25 -20 -6 -11 -21 -31 -34 -45 -35 -38 -95 -168 -108 -233 -30 -164 28
-368 122 -421 23 -13 38 -27 33 -31 -4 -4 -42 -15 -84 -24 -42 -9 -112 -30
-154 -47 -43 -16 -81 -26 -85 -22 -17 18 -60 160 -98 318 -61 255 -82 397 -82
562 0 255 34 488 100 677 11 33 20 72 20 89 0 30 53 136 118 237 34 52 218
240 235 240 5 0 41 23 80 50 39 28 76 50 82 50 5 0 16 9 23 20 7 11 19 20 27
20 16 0 20 -30 7 -45 -21 -26 -84 -212 -102 -300 -6 -33 -17 -85 -25 -115 -14
-60 -26 -124 -49 -270 -14 -84 -21 -164 -43 -461 -7 -92 5 -219 18 -198 5 8 9
40 9 72 0 86 29 453 40 522 29 165 60 377 60 402 0 16 4 33 9 39 5 5 16 36 26
69 9 33 23 74 30 90 32 76 43 103 56 148 7 27 21 54 29 61 31 28 156 61 330
90 48 7 406 -1 462 -12z m3876 -501 c84 -166 174 -317 206 -346 19 -16 50 -55
69 -86 19 -31 40 -60 46 -63 6 -4 11 -17 11 -30 0 -13 18 -40 45 -66 25 -24
45 -50 45 -57 0 -25 -55 -113 -70 -113 -15 0 -100 151 -100 177 0 6 -9 22 -21
36 -11 15 -42 71 -69 126 -27 54 -53 102 -59 105 -5 3 -12 21 -16 39 -4 17
-27 77 -52 132 -25 55 -54 120 -65 145 -12 25 -24 58 -29 73 -14 50 17 12 59
-72z m-5743 -121 c16 -26 109 -61 195 -72 l92 -13 -6 -47 c-12 -85 -6 -82
-120 -74 -138 10 -202 29 -227 69 -24 41 -24 56 3 106 21 40 49 53 63 31z
m2781 -15 c35 -10 54 -23 67 -44 35 -59 121 -139 162 -151 114 -32 361 -20
453 23 25 11 47 16 52 11 14 -14 -8 -106 -31 -130 -31 -33 -133 -50 -209 -34
-46 10 -86 10 -193 0 -159 -14 -342 -18 -353 -7 -13 13 -45 310 -36 337 5 14
29 13 88 -5z m590 -512 c-20 -226 -27 -451 -27 -853 -1 -496 3 -537 56 -616
49 -72 31 -83 -65 -38 -73 34 -120 71 -120 95 0 10 -24 68 -54 127 -107 212
-155 318 -167 367 -6 28 -16 59 -22 69 -26 51 -153 433 -182 546 -9 36 -20 81
-25 100 -5 19 -12 55 -15 80 -4 25 -10 66 -14 92 -4 26 -5 52 -1 58 10 15 320
41 589 49 l54 1 -7 -77z m-2077 -354 c43 -9 56 -18 97 -67 27 -31 62 -71 79
-88 42 -43 69 -122 61 -182 -9 -60 -43 -150 -70 -182 -12 -14 -29 -41 -39 -60
-25 -50 -54 -86 -63 -78 -3 4 -1 27 5 52 6 25 11 107 11 182 0 147 -15 214
-66 295 -23 36 -110 119 -125 119 -5 0 -9 5 -9 10 0 13 56 13 119 -1z m-119
-84 c59 -30 116 -126 139 -233 38 -179 -36 -405 -140 -426 -54 -11 -140 -7
-172 8 -18 8 -43 16 -56 18 -33 4 -108 103 -128 169 -38 126 -9 255 90 390 59
81 184 115 267 74z m1629 -153 c11 -37 36 -125 56 -197 19 -71 44 -159 56
-195 20 -62 29 -86 63 -162 44 -98 47 -110 29 -106 -27 5 -122 129 -133 173
-6 22 -17 63 -25 90 -37 134 -85 386 -85 448 0 45 17 22 39 -51z m-1205 -489
c41 -187 51 -226 68 -281 5 -19 8 -36 5 -39 -3 -2 -38 23 -77 56 -64 54 -109
81 -232 144 -21 11 -38 22 -38 26 0 9 143 101 157 101 5 0 26 18 48 40 21 21
41 37 45 35 4 -2 15 -39 24 -82z m-466 -193 c87 -11 187 -50 262 -100 30 -20
66 -44 80 -52 14 -9 54 -42 90 -75 73 -67 134 -173 112 -195 -8 -8 -21 -5 -49
15 -103 70 -271 127 -374 127 -67 0 -231 -45 -279 -77 -71 -48 -212 -188 -236
-235 -35 -68 -60 -143 -75 -221 -7 -37 -19 -73 -27 -80 -25 -21 -151 -35 -227
-26 -141 18 -238 42 -336 83 -61 25 -64 35 -44 128 26 121 57 184 135 274 121
140 156 174 255 249 199 150 316 191 550 193 50 1 123 -3 163 -8z m3785 -396
c57 -29 125 -93 156 -147 17 -28 37 -63 45 -77 61 -102 86 -189 86 -305 0
-128 -35 -238 -85 -271 -22 -14 -30 -15 -58 -3 -17 7 -46 23 -63 36 -17 13
-34 23 -38 23 -3 0 -23 11 -44 24 -49 30 -169 71 -259 86 -139 25 -355 -10
-519 -83 -43 -19 -97 -40 -119 -47 -22 -7 -44 -16 -50 -20 -5 -4 -24 -11 -41
-14 -18 -4 -81 -27 -140 -51 -94 -38 -119 -45 -180 -45 -71 0 -119 15 -144 45
-16 20 11 32 112 49 45 7 105 23 131 35 27 11 53 21 58 21 13 0 193 83 249
114 14 7 38 20 54 27 31 15 52 35 126 121 67 78 97 141 105 219 13 139 27 229
36 229 6 0 29 -10 52 -21 92 -48 270 -31 392 36 69 38 94 41 138 19z m-3673
-387 c89 -31 116 -65 135 -174 29 -167 -15 -307 -109 -350 -84 -38 -162 -9
-217 80 -29 47 -32 58 -32 142 -1 144 41 244 127 296 36 22 49 23 96 6z m3419
-383 c40 -5 61 -11 61 -20 0 -18 -121 -84 -153 -84 -57 0 -159 72 -142 100 7
11 141 13 234 4z"/>
<path d="M4160 7035 c-86 -18 -200 -64 -252 -103 -38 -28 -57 -55 -93 -126
-61 -122 -78 -208 -72 -356 11 -248 115 -475 254 -556 22 -14 43 -31 46 -38 8
-20 131 -57 210 -63 52 -4 85 -1 148 17 74 21 86 29 147 89 98 96 134 145 160
214 32 88 40 228 18 343 -25 133 -34 162 -72 217 -19 27 -34 54 -34 59 0 20
-94 149 -140 192 -57 53 -155 105 -219 115 -26 4 -70 2 -101 -4z"/>
<path d="M2758 7025 c-133 -33 -256 -132 -314 -254 -85 -177 -106 -263 -107
-446 -1 -111 3 -138 22 -189 33 -88 105 -182 161 -210 84 -42 267 -47 350 -9
97 44 226 200 268 326 20 58 25 99 29 215 5 148 5 152 -43 300 -44 134 -169
262 -269 276 -22 2 -66 -2 -97 -9z"/>
</g>
</svg>
