<?xml version="1.0" standalone="no"?>
<!DOCTYPE svg PUBLIC "-//W3C//DTD SVG 20010904//EN"
 "http://www.w3.org/TR/2001/REC-SVG-20010904/DTD/svg10.dtd">
<svg version="1.0" xmlns="http://www.w3.org/2000/svg"
 width="626.000000pt" height="626.000000pt" viewBox="0 0 626.000000 626.000000"
 preserveAspectRatio="xMidYMid meet">

<g transform="translate(0.000000,626.000000) scale(0.100000,-0.100000)"
fill="#000000" stroke="none">
<path d="M2790 5090 c-522 -64 -899 -340 -1149 -840 -32 -63 -63 -130 -69
-147 -6 -18 -16 -33 -21 -33 -6 0 -36 12 -68 26 -68 31 -181 43 -235 25 -53
-17 -114 -75 -142 -134 -46 -98 -56 -280 -25 -456 41 -229 159 -444 352 -645
97 -101 136 -151 162 -211 9 -22 70 -198 136 -391 207 -615 241 -697 352 -846
71 -96 179 -197 247 -230 118 -56 229 -60 381 -12 83 26 84 26 156 10 91 -20
243 -20 383 -1 134 18 301 19 369 1 l53 -14 77 38 c96 48 172 71 391 120 96
21 235 59 308 84 89 30 171 50 249 61 236 33 367 115 451 284 34 68 37 83 40
176 9 232 -80 404 -533 1030 -163 226 -165 238 -74 375 130 194 183 376 183
625 -1 210 -29 276 -141 332 -102 50 -216 33 -305 -46 -47 -41 -65 -40 -85 7
-25 61 -117 212 -184 302 -154 208 -381 376 -609 450 -177 57 -459 83 -650 60z
m414 -87 c410 -76 742 -336 939 -732 39 -78 42 -90 42 -165 0 -101 -24 -151
-125 -266 -39 -43 -70 -83 -70 -88 0 -5 10 -17 21 -28 21 -19 22 -19 105 70
75 79 93 106 164 246 50 99 91 167 110 184 88 73 216 48 267 -52 44 -88 39
-312 -12 -480 -59 -200 -142 -332 -346 -549 -60 -65 -108 -124 -107 -132 2 -7
10 -18 19 -24 13 -8 36 6 116 71 55 45 104 82 109 82 8 -1 69 -88 435 -624
218 -320 254 -401 247 -545 -5 -103 -38 -173 -120 -255 -137 -136 -296 -171
-520 -112 -96 25 -177 29 -256 12 -113 -24 -182 -66 -302 -187 -110 -110 -157
-140 -247 -159 -77 -17 -143 1 -296 80 -250 127 -384 119 -637 -40 -166 -104
-321 -90 -464 41 -132 120 -212 247 -324 514 -190 456 -293 837 -348 1295 -24
199 -25 604 -1 730 49 258 169 495 349 685 163 172 353 297 568 373 223 78
461 97 684 55z m-1808 -958 c53 -15 96 -53 113 -96 9 -25 15 -407 12 -827 -1
-209 2 -205 -86 -117 -182 183 -304 497 -293 754 8 167 51 253 144 286 50 18
51 18 110 0z m2958 -2521 c4 -15 6 -28 4 -29 -4 -4 -230 -65 -241 -65 -5 0 -7
14 -5 32 3 32 3 32 113 59 61 15 113 27 116 28 4 0 10 -11 13 -25z m-1154
-204 c0 -17 -6 -32 -12 -35 -7 -2 -63 -5 -125 -8 l-111 -5 -5 25 c-3 14 1 27
8 29 10 4 71 10 228 23 13 1 17 -7 17 -29z"/>
<path d="M3164 4156 c-47 -21 -74 -72 -74 -141 0 -70 19 -105 73 -136 49 -27
108 -29 159 -5 54 26 78 70 78 142 0 72 -25 119 -75 140 -43 18 -120 18 -161
0z"/>
<path d="M2044 4131 c-98 -45 -102 -225 -5 -276 40 -20 135 -20 171 2 68 40
92 157 47 224 -44 66 -132 87 -213 50z"/>
<path d="M2565 3931 c-82 -38 -138 -131 -162 -270 -28 -158 11 -315 94 -378
67 -52 183 -67 282 -37 76 22 144 92 167 170 29 101 8 260 -51 374 -26 51 -96
121 -140 141 -52 24 -138 24 -190 0z m289 -397 c32 -32 9 -132 -40 -175 -31
-27 -91 -42 -141 -34 -50 7 -163 53 -163 66 0 9 200 129 244 146 44 16 82 16
100 -3z"/>
</g>
</svg>
